<svg xmlns="http://www.w3.org/2000/svg" width="111" height="30" viewBox="0 0 369.6666666666667 99.4348649507359" class="css-1j8o68f"><defs id="SvgjsDefs10495"></defs><g id="SvgjsG10496" featurekey="5TMTKC-0" transform="matrix(1.5536697648552484,0,0,1.5536697648552484,-36.01681564931595,-27.965806842642717)" fill="#f0d687"><g xmlns="http://www.w3.org/2000/svg" transform="translate(0,-952.36216)"><path d="m 50.196374,970.37485 a 1.5043353,1.4942442 0 0 0 -1.233658,0.6716 c -2.738176,3.9713 -11.417261,7.34737 -21.347025,7.40573 a 1.5043353,1.4942442 0 0 0 -0.0588,0 1.5043353,1.4942442 0 0 0 -0.1952,-0.0204 1.5043353,1.4942442 0 0 0 -1.479617,1.19072 c 0,0 -1.500798,6.74949 -2.252616,14.91315 -0.751859,8.16385 -0.906859,17.72395 2.393136,23.89635 2.472135,4.6239 8.321266,8.3404 13.542957,11.1693 4.829712,2.6165 8.813046,4.2 9.439845,4.4467 a 1.5043353,1.4942442 0 0 0 0.995518,0.3123 1.5043353,1.4942442 0 0 0 1.007238,-0.3201 1.5043353,1.4942442 0 0 0 0.006,0 c 0.652579,-0.2564 4.616113,-1.828 9.428125,-4.4349 5.221671,-2.8289 11.062982,-6.5454 13.535137,-11.1693 3.299995,-6.1724 3.144975,-15.7325 2.393116,-23.89635 -0.751858,-8.16366 -2.252576,-14.91315 -2.252576,-14.91315 a 1.5043353,1.4942442 0 0 0 -1.518677,-1.19072 1.5043353,1.4942442 0 0 0 -0.125,0 c -9.540984,-0.038 -17.922891,-3.23493 -20.847286,-7.09347 a 1.5043353,1.4942442 0 0 0 -1.432777,-0.98004 z m -0.0274,3.89236 c 4.193413,4.42323 12.24024,6.91019 21.225985,7.12867 0.301139,1.42257 1.346777,6.511 1.983236,13.42181 0.732479,7.95281 0.579679,17.28921 -2.057416,22.22151 -1.809177,3.3841 -7.288768,7.2212 -12.32098,9.9474 -4.555432,2.468 -8.257306,3.95 -8.998685,4.2436 -0.741419,-0.2937 -4.443253,-1.7756 -8.998705,-4.2436 -5.032212,-2.7262 -10.511763,-6.5633 -12.32098,-9.9474 -2.637095,-4.9323 -2.789815,-14.2687 -2.057416,-22.22151 0.636159,-6.90741 1.681357,-11.99164 1.983236,-13.41801 9.141745,-0.21772 17.311752,-2.70322 21.561725,-7.13247 z" style="color:;font-style:normal;font-variant:normal;font-weight:normal;font-stretch:normal;font-size:medium;line-height:normal;font-family:sans-serif;text-indent:0;text-align:start;text-decoration:none;text-decoration-line:none;text-decoration-style:solid;text-decoration-color:;letter-spacing:normal;word-spacing:normal;text-transform:none;direction:ltr;block-progression:tb;writing-mode:lr-tb;baseline-shift:baseline;text-anchor:start;white-space:normal;clip-rule:nonzero;display:inline;overflow:visible;visibility:visible;opacity:1;isolation:auto;mix-blend-mode:normal;color-interpolation:sRGB;color-interpolation-filters:linearRGB;solid-color:;solid-opacity:1;fill:#f0d687;fill-opacity:1;fill-rule:nonzero;stroke:none;stroke-width:0.88166183;stroke-linecap:round;stroke-linejoin:round;stroke-miterlimit:4;stroke-dasharray:none;stroke-dashoffset:0;stroke-opacity:1;color-rendering:auto;image-rendering:auto;shape-rendering:auto;text-rendering:auto;enable-background:accumulate"></path><path style="color:;font-style:normal;font-variant:normal;font-weight:normal;font-stretch:normal;font-size:medium;line-height:normal;font-family:sans-serif;text-indent:0;text-align:start;text-decoration:none;text-decoration-line:none;text-decoration-style:solid;text-decoration-color:;letter-spacing:normal;word-spacing:normal;text-transform:none;direction:ltr;block-progression:tb;writing-mode:lr-tb;baseline-shift:baseline;text-anchor:start;white-space:normal;clip-rule:nonzero;display:inline;overflow:visible;visibility:visible;opacity:1;isolation:auto;mix-blend-mode:normal;color-interpolation:sRGB;color-interpolation-filters:linearRGB;solid-color:;solid-opacity:1;fill:#f0d687;fill-opacity:1;fill-rule:nonzero;stroke:none;stroke-width:3.62480402;stroke-linecap:round;stroke-linejoin:round;stroke-miterlimit:4;stroke-dasharray:none;stroke-dashoffset:0;stroke-opacity:1;color-rendering:auto;image-rendering:auto;shape-rendering:auto;text-rendering:auto;enable-background:accumulate" d="m 43.208647,993.23169 a 1.5040573,1.496248 0 0 1 1.043719,2.57153 l -6.61075,6.55388 6.61075,6.5539 a 1.5040573,1.496248 0 1 1 -2.123097,2.1185 l -7.678767,-7.6131 a 1.5040573,1.496248 0 0 1 0,-2.1185 l 7.678767,-7.61475 a 1.5040573,1.496248 0 0 1 1.079378,-0.45146 z"></path><path d="m 56.812659,993.22983 a 1.5040573,1.496248 0 0 0 -1.043719,2.57153 l 6.61075,6.55384 -6.61075,6.5539 a 1.5040573,1.496248 0 1 0 2.123097,2.1185 l 7.678767,-7.6131 a 1.5040573,1.496248 0 0 0 0,-2.1185 l -7.678767,-7.61471 a 1.5040573,1.496248 0 0 0 -1.079378,-0.45146 z" style="color:;font-style:normal;font-variant:normal;font-weight:normal;font-stretch:normal;font-size:medium;line-height:normal;font-family:sans-serif;text-indent:0;text-align:start;text-decoration:none;text-decoration-line:none;text-decoration-style:solid;text-decoration-color:;letter-spacing:normal;word-spacing:normal;text-transform:none;direction:ltr;block-progression:tb;writing-mode:lr-tb;baseline-shift:baseline;text-anchor:start;white-space:normal;clip-rule:nonzero;display:inline;overflow:visible;visibility:visible;opacity:1;isolation:auto;mix-blend-mode:normal;color-interpolation:sRGB;color-interpolation-filters:linearRGB;solid-color:;solid-opacity:1;fill:#f0d687;fill-opacity:1;fill-rule:nonzero;stroke:none;stroke-width:3.62480402;stroke-linecap:round;stroke-linejoin:round;stroke-miterlimit:4;stroke-dasharray:none;stroke-dashoffset:0;stroke-opacity:1;color-rendering:auto;image-rendering:auto;shape-rendering:auto;text-rendering:auto;enable-background:accumulate"></path><path d="m 53.800268,987.52575 a 1.5040573,1.496248 0 0 0 -1.397018,1.10441 l -7.678767,26.64744 a 1.5040573,1.496248 0 1 0 2.891275,0.8255 l 7.678787,-26.64912 a 1.5040573,1.496248 0 0 0 -1.494277,-1.92823 z" style="color:;font-style:normal;font-variant:normal;font-weight:normal;font-stretch:normal;font-size:medium;line-height:normal;font-family:sans-serif;text-indent:0;text-align:start;text-decoration:none;text-decoration-line:none;text-decoration-style:solid;text-decoration-color:;letter-spacing:normal;word-spacing:normal;text-transform:none;direction:ltr;block-progression:tb;writing-mode:lr-tb;baseline-shift:baseline;text-anchor:start;white-space:normal;clip-rule:nonzero;display:inline;overflow:visible;visibility:visible;opacity:1;isolation:auto;mix-blend-mode:normal;color-interpolation:sRGB;color-interpolation-filters:linearRGB;solid-color:;solid-opacity:1;fill:#f0d687;fill-opacity:1;fill-rule:nonzero;stroke:none;stroke-width:3.62480402;stroke-linecap:round;stroke-linejoin:round;stroke-miterlimit:4;stroke-dasharray:none;stroke-dashoffset:0;stroke-opacity:1;color-rendering:auto;image-rendering:auto;shape-rendering:auto;text-rendering:auto;enable-background:accumulate"></path></g></g><g id="SvgjsG10497" featurekey="7UBp9i-0" transform="matrix(5.116398160621057,0,0,5.116398160621057,103.71629627921847,-16.265796405289393)" fill="#ffffff"><path d="M8.5 5.720000000000001 l5.34 14.28 l-3.26 0 l-1.08 -3.18 l-5.34 0 l-1.12 3.18 l-3.18 0 l5.42 -14.28 l3.22 0 z M6.84 9.24 l-1.86 5.24 l3.7 0 l-1.8 -5.24 l-0.04 0 z M18.22 5.720000000000001 l0 11.64 l6.96 0 l0 2.64 l-10.1 0 l0 -14.28 l3.14 0 z M37.620000000000005 5.720000000000001 l0 2.64 l-7.54 0 l0 3.06 l6.92 0 l0 2.44 l-6.92 0 l0 3.5 l7.7 0 l0 2.64 l-10.84 0 l0 -14.28 l10.68 0 z M42.440000000000005 5.720000000000001 l2.8 4.56 l2.9 -4.56 l3.44 0 l-4.58 6.82 l4.98 7.46 l-3.74 0 l-3.12 -4.94 l-3.18 4.94 l-3.54 0 l5 -7.48 l-4.6 -6.8 l3.64 0 z"></path></g></svg>