<?xml version="1.0" encoding="UTF-8"?>
<!DOCTYPE svg PUBLIC "-//W3C//DTD SVG 1.1//EN" "http://www.w3.org/Graphics/SVG/1.1/DTD/svg11.dtd">
<!-- Creator: CorelDRAW X6 -->
<svg xmlns="http://www.w3.org/2000/svg" xml:space="preserve" width="25" height="25" version="1.1" style="shape-rendering:geometricPrecision; text-rendering:geometricPrecision; image-rendering:optimizeQuality; fill-rule:evenodd; clip-rule:evenodd"
viewBox="0 0 109 109"
 xmlns:xlink="http://www.w3.org/1999/xlink">
 <defs>
  <style type="text/css">
   <![CDATA[
    .fil39 {fill:#333333}
    .fil2 {fill:#242521;fill-rule:nonzero}
    .fil35 {fill:#7A787A;fill-rule:nonzero}
    .fil1 {fill:url(#id0)}
    .fil0 {fill:url(#id1)}
    .fil36 {fill:url(#id2)}
    .fil4 {fill:url(#id3)}
    .fil14 {fill:url(#id4)}
    .fil30 {fill:url(#id5)}
    .fil22 {fill:url(#id6)}
    .fil32 {fill:url(#id7)}
    .fil24 {fill:url(#id8)}
    .fil6 {fill:url(#id9)}
    .fil20 {fill:url(#id10)}
    .fil28 {fill:url(#id11)}
    .fil18 {fill:url(#id12)}
    .fil34 {fill:url(#id13)}
    .fil8 {fill:url(#id14)}
    .fil10 {fill:url(#id15)}
    .fil12 {fill:url(#id16)}
    .fil16 {fill:url(#id17)}
    .fil26 {fill:url(#id18)}
    .fil38 {fill:url(#id19)}
    .fil37 {fill:url(#id20)}
    .fil5 {fill:url(#id21)}
    .fil31 {fill:url(#id22)}
    .fil15 {fill:url(#id23)}
    .fil27 {fill:url(#id24)}
    .fil17 {fill:url(#id25)}
    .fil23 {fill:url(#id26)}
    .fil33 {fill:url(#id27)}
    .fil13 {fill:url(#id28)}
    .fil25 {fill:url(#id29)}
    .fil9 {fill:url(#id30)}
    .fil7 {fill:url(#id31)}
    .fil21 {fill:url(#id32)}
    .fil11 {fill:url(#id33)}
    .fil29 {fill:url(#id34)}
    .fil19 {fill:url(#id35)}
    .fil3 {fill:url(#id36)}
   ]]>
  </style>
  <linearGradient id="id0" gradientUnits="userSpaceOnUse" x1="4.69509" y1="-7.05129" x2="104.762" y2="116.509">
   <stop offset="0" style="stop-color:#FEFEFE"/>
   <stop offset="0.0313725" style="stop-color:#FEFEFE"/>
   <stop offset="0.160784" style="stop-color:#676264"/>
   <stop offset="0.270588" style="stop-color:#F6F7F7"/>
   <stop offset="0.419608" style="stop-color:#242521"/>
   <stop offset="0.811765" style="stop-color:#F3F3F3"/>
   <stop offset="0.968627" style="stop-color:#242521"/>
   <stop offset="1" style="stop-color:#242521"/>
  </linearGradient>
  <linearGradient id="id1" gradientUnits="userSpaceOnUse" x1="43.7748" y1="-6.10494" x2="65.6813" y2="115.562">
   <stop offset="0" style="stop-color:#F6F4F3"/>
   <stop offset="0.478431" style="stop-color:#362D29"/>
   <stop offset="0.780392" style="stop-color:#E3E1E4"/>
   <stop offset="0.968627" style="stop-color:#362D29"/>
   <stop offset="1" style="stop-color:#362D29"/>
  </linearGradient>
  <linearGradient id="id2" gradientUnits="userSpaceOnUse" x1="83.4039" y1="108.979" x2="26.0513" y2="0.479028">
   <stop offset="0" style="stop-color:#FEFEFE"/>
   <stop offset="0.0392157" style="stop-color:#FEFEFE"/>
   <stop offset="0.458824" style="stop-color:#362D29"/>
   <stop offset="0.619608" style="stop-color:#E3E1E4"/>
   <stop offset="0.980392" style="stop-color:#242521"/>
   <stop offset="1" style="stop-color:#242521"/>
  </linearGradient>
  <linearGradient id="id3" gradientUnits="userSpaceOnUse" x1="24.6773" y1="11.951" x2="25.4501" y2="14.0733">
   <stop offset="0" style="stop-color:#FEFEFE"/>
   <stop offset="0.0784314" style="stop-color:#FEFEFE"/>
   <stop offset="0.988235" style="stop-color:#787478"/>
   <stop offset="1" style="stop-color:#787478"/>
  </linearGradient>
  <linearGradient id="id4" gradientUnits="userSpaceOnUse" xlink:href="#id3" x1="44.7281" y1="102.551" x2="45.5013" y2="104.675">
  </linearGradient>
  <linearGradient id="id5" gradientUnits="userSpaceOnUse" xlink:href="#id3" x1="62.3101" y1="2.83879" x2="63.0828" y2="4.96209">
  </linearGradient>
  <linearGradient id="id6" gradientUnits="userSpaceOnUse" xlink:href="#id3" x1="104.024" y1="61.6972" x2="104.796" y2="63.8205">
  </linearGradient>
  <linearGradient id="id7" gradientUnits="userSpaceOnUse" xlink:href="#id3" x1="41.4896" y1="3.93302" x2="42.2624" y2="6.0553">
  </linearGradient>
  <linearGradient id="id8" gradientUnits="userSpaceOnUse" xlink:href="#id3" x1="103.832" y1="43.3533" x2="104.605" y2="45.4766">
  </linearGradient>
  <linearGradient id="id9" gradientUnits="userSpaceOnUse" xlink:href="#id3" x1="10.9021" y1="27.2751" x2="11.6748" y2="29.3974">
  </linearGradient>
  <linearGradient id="id10" gradientUnits="userSpaceOnUse" xlink:href="#id3" x1="97.6637" y1="78.8867" x2="98.436" y2="81.0079">
  </linearGradient>
  <linearGradient id="id11" gradientUnits="userSpaceOnUse" xlink:href="#id3" x1="82.6871" y1="11.2951" x2="83.4593" y2="13.4164">
  </linearGradient>
  <linearGradient id="id12" gradientUnits="userSpaceOnUse" xlink:href="#id3" x1="82.9745" y1="94.9988" x2="83.7472" y2="97.1211">
  </linearGradient>
  <linearGradient id="id13" gradientUnits="userSpaceOnUse" xlink:href="#id3" x1="4.08574" y1="44.0904" x2="4.85799" y2="46.2132">
  </linearGradient>
  <linearGradient id="id14" gradientUnits="userSpaceOnUse" xlink:href="#id3" x1="4.31609" y1="62.4081" x2="5.08834" y2="64.5309">
  </linearGradient>
  <linearGradient id="id15" gradientUnits="userSpaceOnUse" xlink:href="#id3" x1="11.6181" y1="81.5348" x2="12.3903" y2="83.6576">
  </linearGradient>
  <linearGradient id="id16" gradientUnits="userSpaceOnUse" xlink:href="#id3" x1="25.8802" y1="95.404" x2="26.6525" y2="97.5273">
  </linearGradient>
  <linearGradient id="id17" gradientUnits="userSpaceOnUse" xlink:href="#id3" x1="65.9384" y1="102.388" x2="66.7107" y2="104.511">
  </linearGradient>
  <linearGradient id="id18" gradientUnits="userSpaceOnUse" xlink:href="#id3" x1="95.5839" y1="23.491" x2="96.3562" y2="25.6138">
  </linearGradient>
  <radialGradient id="id19" gradientUnits="objectBoundingBox" cx="-50%" cy="-33.0001%" r="50%" fx="-50%" fy="-33.0001%">
   <stop offset="0" style="stop-color:#242521"/>
   <stop offset="0.0313725" style="stop-color:#242521"/>
   <stop offset="0" style="stop-color:#F3F3F3"/>
   <stop offset="0.380392" style="stop-color:#6D6769"/>
   <stop offset="0" style="stop-color:#787478"/>
   <stop offset="0" style="stop-color:#F6ED7F"/>
   <stop offset="0.219608" style="stop-color:#F6ED7F"/>
   <stop offset="1" style="stop-color:#F4C180"/>
  </radialGradient>
  <radialGradient id="id20" gradientUnits="objectBoundingBox" cx="12%" cy="2.9999%" r="44%" fx="12%" fy="2.9999%">
   <stop offset="0" style="stop-color:#242521"/>
   <stop offset="0.0313725" style="stop-color:#242521"/>
   <stop offset="0" style="stop-color:#F3F3F3"/>
   <stop offset="0.380392" style="stop-color:#6D6769"/>
   <stop offset="0" style="stop-color:#787478"/>
   <stop offset="0" style="stop-color:#F6E237"/>
   <stop offset="0.180392" style="stop-color:#F6E237"/>
   <stop offset="1" style="stop-color:#EF7F2C"/>
  </radialGradient>
  <radialGradient id="id21" gradientUnits="objectBoundingBox" cx="22.9995%" cy="13.998%" r="39.0036%" fx="22.9995%" fy="13.998%">
   <stop offset="0" style="stop-color:#FEFEFE"/>
   <stop offset="0.0509804" style="stop-color:#FEFEFE"/>
   <stop offset="1" style="stop-color:#242521"/>
  </radialGradient>
  <radialGradient id="id22" gradientUnits="objectBoundingBox" xlink:href="#id21" cx="22.9966%" cy="14.002%" r="39.0016%" fx="22.9966%" fy="14.002%">
  </radialGradient>
  <radialGradient id="id23" gradientUnits="objectBoundingBox" xlink:href="#id21" cx="22.9995%" cy="13.9949%" r="39.0036%" fx="22.9995%" fy="13.9949%">
  </radialGradient>
  <radialGradient id="id24" gradientUnits="objectBoundingBox" xlink:href="#id21" cx="22.9966%" cy="14.0022%" r="39.0004%" fx="22.9966%" fy="14.0022%">
  </radialGradient>
  <radialGradient id="id25" gradientUnits="objectBoundingBox" xlink:href="#id21" cx="22.9995%" cy="14.002%" r="39.0036%" fx="22.9995%" fy="14.002%">
  </radialGradient>
  <radialGradient id="id26" gradientUnits="objectBoundingBox" xlink:href="#id21" cx="22.9966%" cy="13.998%" r="39.0016%" fx="22.9966%" fy="13.998%">
  </radialGradient>
  <radialGradient id="id27" gradientUnits="objectBoundingBox" xlink:href="#id21" cx="22.9989%" cy="14.0022%" r="39.0004%" fx="22.9989%" fy="14.0022%">
  </radialGradient>
  <radialGradient id="id28" gradientUnits="objectBoundingBox" xlink:href="#id21" cx="22.9966%" cy="13.999%" r="39.0016%" fx="22.9966%" fy="13.999%">
  </radialGradient>
  <radialGradient id="id29" gradientUnits="objectBoundingBox" xlink:href="#id21" cx="22.9989%" cy="13.998%" r="39.0004%" fx="22.9989%" fy="13.998%">
  </radialGradient>
  <radialGradient id="id30" gradientUnits="objectBoundingBox" xlink:href="#id21" cx="22.9989%" cy="13.998%" r="39.0004%" fx="22.9989%" fy="13.998%">
  </radialGradient>
  <radialGradient id="id31" gradientUnits="objectBoundingBox" xlink:href="#id21" cx="22.9966%" cy="14.0012%" r="38.9975%" fx="22.9966%" fy="14.0012%">
  </radialGradient>
  <radialGradient id="id32" gradientUnits="objectBoundingBox" xlink:href="#id21" cx="23.0034%" cy="13.9937%" r="39.0028%" fx="23.0034%" fy="13.9937%">
  </radialGradient>
  <radialGradient id="id33" gradientUnits="objectBoundingBox" xlink:href="#id21" cx="22.9966%" cy="13.9937%" r="39.0016%" fx="22.9966%" fy="13.9937%">
  </radialGradient>
  <radialGradient id="id34" gradientUnits="objectBoundingBox" xlink:href="#id21" cx="23.0034%" cy="14.0022%" r="39.0004%" fx="23.0034%" fy="14.0022%">
  </radialGradient>
  <radialGradient id="id35" gradientUnits="objectBoundingBox" xlink:href="#id21" cx="22.9995%" cy="13.9949%" r="39.0036%" fx="22.9995%" fy="13.9949%">
  </radialGradient>
  <radialGradient id="id36" gradientUnits="objectBoundingBox" xlink:href="#id21" cx="22.9995%" cy="14.0012%" r="39.0036%" fx="22.9995%" fy="14.0012%">
  </radialGradient>
 </defs>
 <g id="Layer_x0020_2">
  <metadata id="CorelCorpID_0Corel-Layer"/>
  <path class="fil0" d="M109 64c-6,30 -34,50 -64,45 -30,-6 -49,-34 -44,-64 5,-30 33,-49 63,-44 30,5 50,33 45,63z"/>
  <path class="fil1" d="M107 64c-5,29 -33,48 -62,43 -29,-5 -48,-33 -43,-62 5,-29 33,-48 62,-43 29,5 48,33 43,62z"/>
  <path class="fil2" d="M27 14c0,1 -1,2 -2,2 -1,0 -1,-1 -1,-2 0,-1 1,-2 2,-1 1,0 1,1 1,1z"/>
  <path class="fil3" d="M27 14c0,1 -1,1 -2,1 -1,0 -2,-1 -1,-2 0,0 1,-1 2,-1 0,0 1,1 1,2z"/>
  <path class="fil4" d="M26 13c0,0 0,0 -1,0 -1,0 -1,1 -1,1 0,-1 0,-2 1,-2 0,0 1,0 1,1z"/>
  <path class="fil2" d="M13 30c0,1 -1,1 -2,1 -1,0 -1,-1 -1,-2 0,-1 1,-1 2,-1 1,0 1,1 1,2z"/>
  <path class="fil5" d="M13 29c0,1 -1,2 -2,2 -1,-1 -1,-1 -1,-2 0,-1 1,-2 2,-2 1,1 1,1 1,2z"/>
  <path class="fil6" d="M13 28c0,0 -1,0 -2,0 0,1 -1,1 -1,1 0,-1 0,-1 1,-1 1,-1 1,0 2,0z"/>
  <path class="fil2" d="M7 65c-1,1 -1,1 -2,1 -1,0 -2,-1 -2,-2 1,-1 1,-1 2,-1 1,0 2,1 2,2z"/>
  <path class="fil7" d="M6 64c0,1 -1,2 -1,2 -1,0 -2,-1 -2,-2 0,-1 1,-2 2,-1 1,0 2,1 1,1z"/>
  <path class="fil8" d="M6 63c0,1 -1,0 -1,1 -1,0 -1,0 -2,0 0,0 1,-1 1,-1 1,-1 2,0 2,0z"/>
  <path class="fil2" d="M14 84c0,1 -1,1 -2,1 -1,0 -1,-1 -1,-2 0,0 1,-1 2,-1 1,0 1,1 1,2z"/>
  <path class="fil9" d="M14 84c0,0 -1,1 -2,1 -1,0 -2,-1 -1,-2 0,-1 1,-1 1,-1 1,0 2,1 2,2z"/>
  <path class="fil10" d="M13 82c0,1 0,0 -1,1 -1,0 -1,1 -1,0 0,0 0,-1 1,-1 0,0 1,0 1,0z"/>
  <path class="fil2" d="M28 98c0,1 -1,1 -2,1 -1,0 -1,-1 -1,-2 0,-1 1,-1 2,-1 1,0 1,1 1,2z"/>
  <path class="fil11" d="M28 97c0,1 -1,2 -2,2 -1,0 -1,-1 -1,-2 0,-1 1,-2 2,-1 1,0 1,1 1,1z"/>
  <path class="fil12" d="M28 96c0,1 -1,0 -2,1 0,0 -1,0 -1,0 0,0 0,-1 1,-1 1,-1 1,0 2,0z"/>
  <path class="fil2" d="M47 105c0,1 -1,1 -2,1 -1,0 -1,-1 -1,-2 0,0 1,-1 2,-1 1,0 1,1 1,2z"/>
  <path class="fil13" d="M47 105c0,0 -1,1 -2,1 -1,0 -1,-1 -1,-2 0,-1 1,-1 2,-1 0,0 1,1 1,2z"/>
  <path class="fil14" d="M46 103c1,1 0,0 -1,1 -1,0 -1,1 -1,0 0,0 0,-1 1,-1 1,0 1,0 1,0z"/>
  <path class="fil2" d="M68 105c0,1 -1,1 -2,1 0,0 -1,-1 -1,-2 0,-1 1,-1 2,-1 1,0 1,1 1,2z"/>
  <path class="fil15" d="M68 104c0,1 -1,2 -2,2 -1,0 -1,-1 -1,-2 0,-1 1,-2 2,-1 1,0 1,1 1,1z"/>
  <path class="fil16" d="M68 103c0,1 -1,0 -2,0 0,1 -1,1 -1,1 0,-1 0,-1 1,-1 1,-1 1,0 2,0z"/>
  <path class="fil2" d="M85 97c0,1 -1,2 -2,2 0,0 -1,-1 -1,-2 0,-1 1,-2 2,-1 1,0 1,1 1,1z"/>
  <path class="fil17" d="M85 97c0,1 -1,1 -2,1 -1,0 -1,-1 -1,-2 0,0 1,-1 2,-1 1,0 1,1 1,2z"/>
  <path class="fil18" d="M85 96c0,0 -1,0 -2,0 0,0 -1,1 -1,1 0,-1 0,-1 1,-2 1,0 1,0 2,1z"/>
  <path class="fil2" d="M100 81c0,1 -1,2 -2,2 -1,-1 -1,-1 -1,-2 0,-1 1,-2 2,-2 1,1 1,1 1,2z"/>
  <path class="fil19" d="M100 81c0,1 -1,1 -2,1 -1,0 -2,-1 -1,-2 0,-1 1,-1 2,-1 0,0 1,1 1,2z"/>
  <path class="fil20" d="M99 80c0,0 0,0 -1,0 -1,0 -1,1 -1,0 0,0 0,-1 1,-1 0,0 1,0 1,1z"/>
  <path class="fil2" d="M106 64c0,1 -1,2 -2,1 0,0 -1,-1 -1,-1 0,-1 1,-2 2,-2 1,0 2,1 1,2z"/>
  <path class="fil21" d="M106 64c0,1 -1,1 -2,1 -1,0 -1,-1 -1,-2 0,-1 1,-1 2,-1 1,0 1,1 1,2z"/>
  <path class="fil22" d="M106 62c0,1 -1,1 -2,1 0,0 -1,1 -1,0 0,0 0,-1 1,-1 1,0 1,0 2,0z"/>
  <path class="fil2" d="M106 46c0,1 -1,1 -2,1 -1,0 -1,-1 -1,-2 0,-1 1,-1 2,-1 1,0 1,1 1,2z"/>
  <path class="fil23" d="M106 45c0,1 -1,2 -2,2 -1,0 -1,-1 -1,-2 0,-1 1,-2 2,-2 1,1 1,1 1,2z"/>
  <path class="fil24" d="M105 44c1,1 0,0 -1,0 -1,1 -1,1 -1,1 0,-1 0,-1 1,-1 1,-1 1,0 1,0z"/>
  <path class="fil2" d="M98 26c0,1 -1,1 -2,1 -1,0 -1,-1 -1,-2 0,-1 1,-1 2,-1 0,0 1,1 1,2z"/>
  <path class="fil25" d="M98 25c0,1 -1,2 -2,2 -1,0 -2,-1 -1,-2 0,-1 1,-2 1,-1 1,0 2,1 2,1z"/>
  <path class="fil26" d="M97 24c0,1 0,0 -1,1 -1,0 -1,1 -1,0 0,0 0,-1 1,-1 0,0 1,0 1,0z"/>
  <path class="fil2" d="M85 14c0,1 -1,1 -2,1 -1,0 -1,-1 -1,-2 0,-1 1,-1 2,-1 1,0 1,1 1,2z"/>
  <path class="fil27" d="M85 13c0,1 -1,2 -2,2 -1,-1 -1,-1 -1,-2 0,-1 1,-2 2,-2 0,1 1,1 1,2z"/>
  <path class="fil28" d="M84 12c0,1 0,0 -1,0 -1,1 -1,1 -1,1 0,-1 0,-1 1,-1 0,-1 1,0 1,0z"/>
  <path class="fil2" d="M65 5c-1,1 -1,2 -2,2 -1,-1 -2,-1 -2,-2 1,-1 1,-2 2,-2 1,1 2,1 2,2z"/>
  <path class="fil29" d="M64 5c0,1 -1,1 -1,1 -1,0 -2,-1 -2,-2 0,-1 1,-1 2,-1 1,0 2,1 1,2z"/>
  <path class="fil30" d="M64 4c0,0 -1,0 -1,0 -1,0 -1,1 -2,0 0,0 1,-1 1,-1 1,0 2,0 2,1z"/>
  <path class="fil2" d="M44 6c0,1 -1,2 -2,2 -1,0 -2,-1 -1,-2 0,-1 1,-2 2,-1 0,0 1,0 1,1z"/>
  <path class="fil31" d="M44 6c-1,1 -1,1 -2,1 -1,0 -2,-1 -2,-2 1,-1 1,-1 2,-1 1,0 2,1 2,2z"/>
  <path class="fil32" d="M43 5c0,0 0,0 -1,0 -1,0 -1,1 -1,1 -1,-1 0,-2 1,-2 0,0 1,0 1,1z"/>
  <path class="fil2" d="M6 47c0,0 -1,1 -1,1 -1,0 -2,-1 -2,-2 0,-1 1,-1 2,-1 1,0 2,1 1,2z"/>
  <path class="fil33" d="M6 46c0,1 -1,2 -2,1 -1,0 -1,-1 -1,-1 0,-1 1,-2 2,-2 1,0 1,1 1,2z"/>
  <path class="fil34" d="M6 45c0,0 -1,0 -2,0 0,0 -1,1 -1,1 0,-1 0,-1 1,-2 1,0 2,0 2,1z"/>
  <path class="fil2" d="M101 63l0 0c-4,23 -24,39 -46,39 -3,0 -6,0 -8,-1 -23,-4 -39,-24 -39,-46 0,-3 0,-6 0,-8 4,-23 24,-39 47,-39 2,0 5,0 8,0 23,4 39,24 39,47 0,2 0,5 -1,8l0 0 1 0c0,-3 0,-6 0,-8 0,-23 -16,-43 -39,-47 -3,-1 -6,-1 -8,-1 -23,0 -43,16 -47,39 -1,3 -1,6 -1,9 0,22 16,43 39,47 3,0 6,0 9,0 22,0 43,-16 47,-39l-1 0 0 0z"/>
  <path class="fil35" d="M55 7c-23,0 -43,17 -47,39 -2,13 1,25 8,35 0,0 0,0 0,0 -6,-8 -8,-17 -8,-26 0,-3 0,-6 0,-8 4,-23 24,-39 47,-39 2,0 5,0 8,0 7,2 14,5 20,9 0,0 0,0 0,0 -5,-4 -12,-8 -20,-9 -3,0 -6,-1 -8,-1l0 0z"/>
  <path class="fil36" d="M47 101c-26,-4 -43,-29 -39,-54 5,-26 29,-43 55,-39 26,5 43,29 38,55 -4,26 -29,43 -54,38zm16 -93c-26,-5 -51,12 -55,38 -5,26 12,51 38,56 26,4 51,-13 56,-39 4,-26 -13,-51 -39,-55z"/>
  <circle class="fil37" cx="55" cy="55" r="47"/>
  <path class="fil38" d="M55 8c10,0 20,3 28,9 -31,10 -55,34 -67,64 -5,-7 -8,-16 -8,-26 0,-26 21,-47 47,-47z"/>
  <path class="fil39" d="M45 45c-2,4 -7,8 -2,18l10 21c3,6 4,8 11,10 6,2 14,-2 17,-9l1 -2c0,-4 0,-7 -2,-12l-11 -21c-5,-10 -10,-8 -16,-9 4,-13 5,-7 -2,-20 -1,-2 -1,-5 -3,-6 -2,4 -5,12 -5,16 -4,-2 -11,-5 -16,-5 0,2 4,9 6,11 3,6 1,5 12,8z"/>
  <path class="fil35" d="M56 30c0,-2 -2,-4 -5,-9 -1,-2 -1,-5 -3,-6 -2,4 -5,12 -5,16 -4,-2 -11,-5 -16,-5 0,2 4,9 6,11 2,5 2,5 7,7 5,-5 10,-10 16,-14z"/>
 </g>
</svg>
