<?xml version="1.0" encoding="UTF-8"?>
<!DOCTYPE svg PUBLIC "-//W3C//DTD SVG 1.1//EN" "http://www.w3.org/Graphics/SVG/1.1/DTD/svg11.dtd">
<!-- Creator: CorelDRAW X6 -->
<svg xmlns="http://www.w3.org/2000/svg" xml:space="preserve" width="25" height="25" version="1.1" style="shape-rendering:geometricPrecision; text-rendering:geometricPrecision; image-rendering:optimizeQuality; fill-rule:evenodd; clip-rule:evenodd"
viewBox="0 0 240 240"
 xmlns:xlink="http://www.w3.org/1999/xlink">
 <defs>
  <style type="text/css">
   <![CDATA[
    .str0 {stroke:#242521;stroke-width:0.943622;stroke-linecap:round;stroke-linejoin:round}
    .fil39 {fill:none}
    .fil43 {fill:none;fill-rule:nonzero}
    .fil4 {fill:#242521;fill-rule:nonzero}
    .fil42 {fill:url(#id0)}
    .fil41 {fill:url(#id1)}
    .fil1 {fill:url(#id2)}
    .fil40 {fill:url(#id3)}
    .fil38 {fill:url(#id4)}
    .fil37 {fill:url(#id5)}
    .fil3 {fill:url(#id6)}
    .fil2 {fill:url(#id7)}
    .fil0 {fill:url(#id8)}
    .fil12 {fill:url(#id9)}
    .fil6 {fill:url(#id10)}
    .fil32 {fill:url(#id11)}
    .fil18 {fill:url(#id12)}
    .fil20 {fill:url(#id13)}
    .fil22 {fill:url(#id14)}
    .fil8 {fill:url(#id15)}
    .fil34 {fill:url(#id16)}
    .fil28 {fill:url(#id17)}
    .fil24 {fill:url(#id18)}
    .fil30 {fill:url(#id19)}
    .fil26 {fill:url(#id20)}
    .fil16 {fill:url(#id21)}
    .fil36 {fill:url(#id22)}
    .fil10 {fill:url(#id23)}
    .fil14 {fill:url(#id24)}
    .fil7 {fill:url(#id25)}
    .fil33 {fill:url(#id26)}
    .fil13 {fill:url(#id27)}
    .fil19 {fill:url(#id28)}
    .fil21 {fill:url(#id29)}
    .fil23 {fill:url(#id30)}
    .fil35 {fill:url(#id31)}
    .fil9 {fill:url(#id32)}
    .fil29 {fill:url(#id33)}
    .fil25 {fill:url(#id34)}
    .fil31 {fill:url(#id35)}
    .fil27 {fill:url(#id36)}
    .fil17 {fill:url(#id37)}
    .fil11 {fill:url(#id38)}
    .fil15 {fill:url(#id39)}
    .fil5 {fill:url(#id40)}
   ]]>
  </style>
  <linearGradient id="id0" gradientUnits="userSpaceOnUse" x1="99.8187" y1="105.744" x2="140.702" y2="137.258">
   <stop offset="0" style="stop-color:#F6E237"/>
   <stop offset="0.0117647" style="stop-color:#F6E237"/>
   <stop offset="0.560784" style="stop-color:#EF7F2C"/>
   <stop offset="1" style="stop-color:#E9572C"/>
  </linearGradient>
  <linearGradient id="id1" gradientUnits="userSpaceOnUse" xlink:href="#id0" x1="75.4305" y1="28.6437" x2="167.391" y2="99.5301">
  </linearGradient>
  <linearGradient id="id2" gradientUnits="userSpaceOnUse" x1="0.370849" y1="16.041" x2="240.126" y2="224.457">
   <stop offset="0" style="stop-color:#FEFEFE"/>
   <stop offset="0.0313725" style="stop-color:#FEFEFE"/>
   <stop offset="0.160784" style="stop-color:#676264"/>
   <stop offset="0.270588" style="stop-color:#F6F7F7"/>
   <stop offset="0.419608" style="stop-color:#242521"/>
   <stop offset="0.811765" style="stop-color:#F3F3F3"/>
   <stop offset="0.968627" style="stop-color:#242521"/>
   <stop offset="1" style="stop-color:#242521"/>
  </linearGradient>
  <linearGradient id="id3" gradientUnits="userSpaceOnUse" xlink:href="#id0" x1="27.4456" y1="127.801" x2="110.436" y2="191.773">
  </linearGradient>
  <linearGradient id="id4" gradientUnits="userSpaceOnUse" xlink:href="#id0" x1="129.615" y1="129.322" x2="212.538" y2="193.242">
  </linearGradient>
  <linearGradient id="id5" gradientUnits="userSpaceOnUse" x1="205.185" y1="229.519" x2="35.314" y2="10.9811">
   <stop offset="0" style="stop-color:#FEFEFE"/>
   <stop offset="0.0392157" style="stop-color:#FEFEFE"/>
   <stop offset="0.458824" style="stop-color:#362D29"/>
   <stop offset="0.619608" style="stop-color:#E3E1E4"/>
   <stop offset="0.980392" style="stop-color:#242521"/>
   <stop offset="1" style="stop-color:#242521"/>
  </linearGradient>
  <linearGradient id="id6" gradientUnits="userSpaceOnUse" x1="41.5843" y1="11.9768" x2="198.912" y2="228.521">
   <stop offset="0" style="stop-color:#D42927"/>
   <stop offset="1" style="stop-color:#2F2623"/>
  </linearGradient>
  <linearGradient id="id7" gradientUnits="userSpaceOnUse" x1="-2.33752" y1="38.4502" x2="189.978" y2="173.11">
   <stop offset="0" style="stop-color:#FEFEFE"/>
   <stop offset="0.0313725" style="stop-color:#FEFEFE"/>
   <stop offset="0.2" style="stop-color:#8A8789"/>
   <stop offset="0.4" style="stop-color:#F6F7F7"/>
   <stop offset="0.619608" style="stop-color:#6D6769"/>
   <stop offset="1" style="stop-color:#F3F3F3"/>
  </linearGradient>
  <linearGradient id="id8" gradientUnits="userSpaceOnUse" x1="74.3963" y1="-4.34894" x2="166.103" y2="244.845">
   <stop offset="0" style="stop-color:#F6F4F3"/>
   <stop offset="0.478431" style="stop-color:#362D29"/>
   <stop offset="0.780392" style="stop-color:#E3E1E4"/>
   <stop offset="0.968627" style="stop-color:#362D29"/>
   <stop offset="1" style="stop-color:#362D29"/>
  </linearGradient>
  <linearGradient id="id9" gradientUnits="userSpaceOnUse" x1="36.8986" y1="194.294" x2="40.0187" y2="199.698">
   <stop offset="0" style="stop-color:#FEFEFE"/>
   <stop offset="0.0784314" style="stop-color:#FEFEFE"/>
   <stop offset="0.988235" style="stop-color:#787478"/>
   <stop offset="1" style="stop-color:#787478"/>
  </linearGradient>
  <linearGradient id="id10" gradientUnits="userSpaceOnUse" xlink:href="#id9" x1="38.6102" y1="38.717" x2="41.7314" y2="44.1215">
  </linearGradient>
  <linearGradient id="id11" gradientUnits="userSpaceOnUse" xlink:href="#id9" x1="116.576" y1="4.63477" x2="119.697" y2="10.0392">
  </linearGradient>
  <linearGradient id="id12" gradientUnits="userSpaceOnUse" xlink:href="#id9" x1="162.415" y1="218.692" x2="165.535" y2="224.097">
  </linearGradient>
  <linearGradient id="id13" gradientUnits="userSpaceOnUse" xlink:href="#id9" x1="196.465" y1="196.199" x2="199.585" y2="201.604">
  </linearGradient>
  <linearGradient id="id14" gradientUnits="userSpaceOnUse" xlink:href="#id9" x1="222.106" y1="155.725" x2="225.228" y2="161.13">
  </linearGradient>
  <linearGradient id="id15" gradientUnits="userSpaceOnUse" xlink:href="#id9" x1="14.6438" y1="77.1365" x2="17.7649" y2="82.541">
  </linearGradient>
  <linearGradient id="id16" gradientUnits="userSpaceOnUse" xlink:href="#id9" x1="71.934" y1="14.9469" x2="75.0541" y2="20.3514">
  </linearGradient>
  <linearGradient id="id17" gradientUnits="userSpaceOnUse" xlink:href="#id9" x1="196.465" y1="36.6329" x2="199.585" y2="42.0373">
  </linearGradient>
  <linearGradient id="id18" gradientUnits="userSpaceOnUse" xlink:href="#id9" x1="229.311" y1="116.099" x2="232.431" y2="121.503">
  </linearGradient>
  <linearGradient id="id19" gradientUnits="userSpaceOnUse" xlink:href="#id9" x1="163.903" y1="15.16" x2="167.023" y2="20.5634">
  </linearGradient>
  <linearGradient id="id20" gradientUnits="userSpaceOnUse" xlink:href="#id9" x1="221.894" y1="76.4715" x2="225.016" y2="81.8759">
  </linearGradient>
  <linearGradient id="id21" gradientUnits="userSpaceOnUse" xlink:href="#id9" x1="116.576" y1="227.141" x2="119.696" y2="232.545">
  </linearGradient>
  <linearGradient id="id22" gradientUnits="userSpaceOnUse" xlink:href="#id9" x1="6.31002" y1="116.129" x2="9.43007" y2="121.533">
  </linearGradient>
  <linearGradient id="id23" gradientUnits="userSpaceOnUse" xlink:href="#id9" x1="13.798" y1="155.685" x2="16.9181" y2="161.089">
  </linearGradient>
  <linearGradient id="id24" gradientUnits="userSpaceOnUse" xlink:href="#id9" x1="73.0589" y1="218.867" x2="76.1789" y2="224.271">
  </linearGradient>
  <radialGradient id="id25" gradientUnits="objectBoundingBox" cx="17.0045%" cy="20.0016%" r="41.0048%" fx="17.0045%" fy="20.0016%">
   <stop offset="0" style="stop-color:#FEFEFE"/>
   <stop offset="0.0509804" style="stop-color:#FEFEFE"/>
   <stop offset="1" style="stop-color:#242521"/>
  </radialGradient>
  <radialGradient id="id26" gradientUnits="objectBoundingBox" xlink:href="#id25" cx="17.0045%" cy="20%" r="41.0048%" fx="17.0045%" fy="20%">
  </radialGradient>
  <radialGradient id="id27" gradientUnits="objectBoundingBox" xlink:href="#id25" cx="17.0005%" cy="20.0016%" r="41.003%" fx="17.0005%" fy="20.0016%">
  </radialGradient>
  <radialGradient id="id28" gradientUnits="objectBoundingBox" xlink:href="#id25" cx="17.0005%" cy="20.0032%" r="41.003%" fx="17.0005%" fy="20.0032%">
  </radialGradient>
  <radialGradient id="id29" gradientUnits="objectBoundingBox" xlink:href="#id25" cx="17.0005%" cy="20.0016%" r="41.003%" fx="17.0005%" fy="20.0016%">
  </radialGradient>
  <radialGradient id="id30" gradientUnits="objectBoundingBox" xlink:href="#id25" cx="17.0045%" cy="20%" r="41.0048%" fx="17.0045%" fy="20%">
  </radialGradient>
  <radialGradient id="id31" gradientUnits="objectBoundingBox" xlink:href="#id25" cx="17.0045%" cy="19.9968%" r="41.003%" fx="17.0045%" fy="19.9968%">
  </radialGradient>
  <radialGradient id="id32" gradientUnits="objectBoundingBox" xlink:href="#id25" cx="17.0045%" cy="19.9968%" r="41.003%" fx="17.0045%" fy="19.9968%">
  </radialGradient>
  <radialGradient id="id33" gradientUnits="objectBoundingBox" xlink:href="#id25" cx="17.007%" cy="20.0032%" r="40.9998%" fx="17.007%" fy="20.0032%">
  </radialGradient>
  <radialGradient id="id34" gradientUnits="objectBoundingBox" xlink:href="#id25" cx="17.002%" cy="20.0032%" r="40.9998%" fx="17.002%" fy="20.0032%">
  </radialGradient>
  <radialGradient id="id35" gradientUnits="objectBoundingBox" xlink:href="#id25" cx="17.007%" cy="20.0016%" r="40.9998%" fx="17.007%" fy="20.0016%">
  </radialGradient>
  <radialGradient id="id36" gradientUnits="objectBoundingBox" xlink:href="#id25" cx="17.0005%" cy="20.0016%" r="41.003%" fx="17.0005%" fy="20.0016%">
  </radialGradient>
  <radialGradient id="id37" gradientUnits="objectBoundingBox" xlink:href="#id25" cx="17.007%" cy="20%" r="40.9998%" fx="17.007%" fy="20%">
  </radialGradient>
  <radialGradient id="id38" gradientUnits="objectBoundingBox" xlink:href="#id25" cx="17.0005%" cy="20.0016%" r="41.003%" fx="17.0005%" fy="20.0016%">
  </radialGradient>
  <radialGradient id="id39" gradientUnits="objectBoundingBox" xlink:href="#id25" cx="17.007%" cy="19.9968%" r="40.9998%" fx="17.007%" fy="19.9968%">
  </radialGradient>
  <radialGradient id="id40" gradientUnits="objectBoundingBox" xlink:href="#id25" cx="16.9979%" cy="20.0016%" r="41.0048%" fx="16.9979%" fy="20.0016%">
  </radialGradient>
 </defs>
 <g id="Layer_x0020_1">
  <metadata id="CorelCorpID_0Corel-Layer"/>
  <path class="fil0" d="M240 120c0,67 -53,120 -120,120 -66,0 -120,-53 -120,-120 0,-66 54,-120 120,-120 67,0 120,54 120,120z"/>
  <path class="fil1" d="M238 120c0,65 -53,118 -118,118 -65,0 -117,-53 -117,-118 0,-65 52,-117 117,-117 65,0 118,52 118,117z"/>
  <path class="fil2" d="M185 22c-28,39 -108,147 -142,187 -24,-22 -40,-54 -40,-89 0,-65 52,-117 117,-117 24,0 46,7 65,19z"/>
  <path class="fil3" d="M224 120c0,58 -46,104 -104,104 -57,0 -104,-46 -104,-104 0,-57 47,-104 104,-104 58,0 104,47 104,104z"/>
  <path class="fil4" d="M45 44c0,1 -2,3 -4,3 -2,0 -3,-2 -3,-3 0,-2 1,-4 3,-4 2,0 4,2 4,4z"/>
  <path class="fil5" d="M44 43c0,2 -1,3 -3,3 -2,0 -4,-1 -4,-3 0,-2 2,-4 4,-4 2,0 3,2 3,4z"/>
  <path class="fil6" d="M43 40c0,1 -2,1 -3,1 -1,1 -2,3 -2,2 -1,-1 0,-2 1,-3 2,-1 3,-1 4,0z"/>
  <path class="fil4" d="M21 82c0,2 -2,3 -4,3 -2,0 -3,-1 -3,-3 0,-2 1,-4 3,-4 2,0 4,2 4,4z"/>
  <path class="fil7" d="M20 81c0,2 -1,4 -3,4 -2,0 -4,-2 -4,-4 0,-2 2,-3 4,-3 2,0 3,1 3,3z"/>
  <path class="fil8" d="M19 79c0,1 -2,0 -3,1 -1,1 -2,2 -2,1 -1,-1 0,-2 1,-3 2,-1 3,0 4,1z"/>
  <path class="fil4" d="M20 160c0,2 -2,4 -3,4 -2,0 -4,-2 -4,-4 0,-1 2,-3 4,-3 1,0 3,2 3,3z"/>
  <path class="fil9" d="M19 160c0,2 -1,3 -3,3 -2,0 -4,-1 -4,-3 0,-2 2,-4 4,-4 2,0 3,2 3,4z"/>
  <path class="fil10" d="M18 157c0,1 -1,1 -3,1 -1,1 -2,3 -2,2 -1,-1 0,-3 1,-3 2,-1 3,-1 4,0z"/>
  <path class="fil4" d="M43 199c0,2 -1,4 -3,4 -2,0 -4,-2 -4,-4 0,-2 2,-3 4,-3 2,0 3,1 3,3z"/>
  <path class="fil11" d="M43 198c0,2 -2,4 -4,4 -2,0 -3,-2 -3,-4 0,-2 1,-3 3,-3 2,0 4,1 4,3z"/>
  <path class="fil12" d="M41 196c1,1 -1,0 -3,1 -1,1 -2,2 -2,1 -1,-1 0,-2 1,-3 2,0 3,0 4,1z"/>
  <path class="fil4" d="M79 224c0,2 -1,3 -3,3 -2,0 -4,-1 -4,-3 0,-2 2,-4 4,-4 2,0 3,2 3,4z"/>
  <path class="fil13" d="M79 223c0,2 -2,3 -4,3 -2,0 -3,-1 -3,-3 0,-2 1,-4 3,-4 2,0 4,2 4,4z"/>
  <path class="fil14" d="M77 220c1,1 -1,1 -3,2 -1,0 -1,2 -2,1 0,-1 0,-2 2,-3 1,-1 3,-1 3,0z"/>
  <path class="fil4" d="M123 232c0,2 -2,3 -4,3 -2,0 -3,-1 -3,-3 0,-2 1,-4 3,-4 2,0 4,2 4,4z"/>
  <path class="fil15" d="M122 231c0,2 -1,4 -3,4 -2,0 -4,-2 -4,-4 0,-2 2,-3 4,-3 2,0 3,1 3,3z"/>
  <path class="fil16" d="M121 229c0,1 -2,0 -3,1 -1,1 -2,2 -2,1 -1,-1 0,-2 1,-3 2,-1 3,0 4,1z"/>
  <path class="fil4" d="M169 223c0,2 -2,4 -4,4 -2,0 -3,-2 -3,-4 0,-1 1,-3 3,-3 2,0 4,2 4,3z"/>
  <path class="fil17" d="M168 223c0,2 -1,3 -3,3 -2,0 -4,-1 -4,-3 0,-2 2,-4 4,-4 2,0 3,2 3,4z"/>
  <path class="fil18" d="M166 220c1,1 -1,1 -2,1 -2,1 -2,3 -3,2 0,-1 1,-3 2,-3 1,-1 3,-1 3,0z"/>
  <path class="fil4" d="M203 201c0,2 -2,4 -4,4 -2,0 -3,-2 -3,-4 0,-2 1,-4 3,-4 2,0 4,2 4,4z"/>
  <path class="fil19" d="M202 200c0,2 -1,4 -3,4 -2,0 -4,-2 -4,-4 0,-2 2,-3 4,-3 2,0 3,1 3,3z"/>
  <path class="fil20" d="M201 198c0,1 -2,0 -3,1 -1,1 -2,2 -2,1 -1,-1 0,-2 1,-3 1,-1 3,0 4,1z"/>
  <path class="fil4" d="M228 161c0,1 -1,3 -3,3 -2,0 -4,-2 -4,-3 0,-2 2,-4 4,-4 2,0 3,2 3,4z"/>
  <path class="fil21" d="M228 160c0,2 -2,3 -4,3 -2,0 -3,-1 -3,-3 0,-2 1,-4 3,-4 2,0 4,2 4,4z"/>
  <path class="fil22" d="M226 157c1,1 -1,1 -2,1 -2,1 -2,3 -3,2 0,-1 0,-2 2,-3 1,-1 3,-1 3,0z"/>
  <path class="fil4" d="M236 121c0,2 -2,3 -4,3 -2,0 -4,-1 -4,-3 0,-2 2,-4 4,-4 2,0 4,2 4,4z"/>
  <path class="fil23" d="M235 120c0,2 -2,4 -4,4 -1,0 -3,-2 -3,-4 0,-2 2,-4 3,-4 2,0 4,2 4,4z"/>
  <path class="fil24" d="M233 118c1,0 -1,0 -2,1 -2,1 -2,2 -3,1 0,-1 1,-2 2,-3 1,-1 3,0 3,1z"/>
  <path class="fil4" d="M228 81c0,2 -1,4 -3,4 -2,0 -4,-2 -4,-4 0,-2 2,-3 4,-3 2,0 3,1 3,3z"/>
  <path class="fil25" d="M228 80c0,2 -2,4 -4,4 -2,0 -3,-2 -3,-4 0,-2 1,-3 3,-3 2,0 4,1 4,3z"/>
  <path class="fil26" d="M226 78c1,1 -1,0 -3,1 -1,1 -2,3 -2,2 -1,-1 0,-3 1,-3 2,-1 3,-1 4,0z"/>
  <path class="fil4" d="M203 41c0,2 -2,4 -4,4 -2,0 -3,-2 -3,-4 0,-2 1,-3 3,-3 2,0 4,1 4,3z"/>
  <path class="fil27" d="M202 41c0,2 -1,3 -3,3 -2,0 -4,-1 -4,-3 0,-2 2,-4 4,-4 2,0 3,2 3,4z"/>
  <path class="fil28" d="M201 38c0,1 -2,1 -3,1 -1,1 -2,3 -2,2 -1,-1 0,-3 1,-3 1,-1 3,-1 4,0z"/>
  <path class="fil4" d="M170 20c0,2 -1,4 -3,4 -2,0 -4,-2 -4,-4 0,-2 2,-4 4,-4 2,0 3,2 3,4z"/>
  <path class="fil29" d="M170 19c0,2 -2,4 -4,4 -2,0 -3,-2 -3,-4 0,-2 1,-3 3,-3 2,0 4,1 4,3z"/>
  <path class="fil30" d="M168 17c1,1 -1,0 -3,1 -1,1 -2,2 -2,1 -1,-1 0,-2 2,-3 1,-1 2,0 3,1z"/>
  <path class="fil4" d="M123 9c0,2 -2,4 -4,4 -2,0 -3,-2 -3,-4 0,-2 1,-3 3,-3 2,0 4,1 4,3z"/>
  <path class="fil31" d="M122 9c0,2 -1,3 -3,3 -2,0 -4,-1 -4,-3 0,-2 2,-4 4,-4 2,0 3,2 3,4z"/>
  <path class="fil32" d="M121 6c0,1 -2,1 -3,1 -1,1 -2,3 -2,2 -1,-1 0,-3 1,-3 2,-1 3,-1 4,0z"/>
  <path class="fil4" d="M78 20c0,2 -1,3 -3,3 -2,0 -4,-1 -4,-3 0,-2 2,-4 4,-4 2,0 3,2 3,4z"/>
  <path class="fil33" d="M78 19c0,2 -2,3 -4,3 -2,0 -3,-1 -3,-3 0,-2 1,-4 3,-4 2,0 4,2 4,4z"/>
  <path class="fil34" d="M76 16c1,1 -1,1 -3,2 -1,0 -1,2 -2,1 -1,-1 0,-2 2,-3 1,-1 2,-1 3,0z"/>
  <path class="fil4" d="M13 121c0,2 -2,3 -4,3 -2,0 -4,-1 -4,-3 0,-2 2,-4 4,-4 2,0 4,2 4,4z"/>
  <path class="fil35" d="M12 120c0,2 -2,4 -4,4 -1,0 -3,-2 -3,-4 0,-2 2,-4 3,-4 2,0 4,2 4,4z"/>
  <path class="fil36" d="M10 118c1,1 -1,0 -2,1 -2,1 -2,2 -3,1 0,-1 1,-2 2,-3 1,-1 3,0 3,1z"/>
  <path class="fil37" d="M120 224c-57,0 -103,-47 -103,-104 0,-57 46,-103 103,-103 57,0 104,46 104,103 0,57 -47,104 -104,104zm0 -209c-58,0 -105,47 -105,105 0,58 47,105 105,105 58,0 105,-47 105,-105 0,-58 -47,-105 -105,-105z"/>
  <path class="fil38" d="M164 201c28,-16 46,-45 47,-78l-68 -1c0,8 -5,15 -12,19l33 60 0 0z"/>
  <path class="fil39 str0" d="M164 201c28,-16 46,-45 47,-78l-68 -1c0,8 -5,15 -12,19l33 60 0 0z"/>
  <path class="fil40" d="M30 120c-1,31 15,62 44,79l35 -58c-3,-2 -6,-5 -8,-9 -2,-3 -3,-7 -3,-11l-68 -1 0 0z"/>
  <path class="fil39 str0" d="M30 120c-1,31 15,62 44,79l35 -58c-3,-2 -6,-5 -8,-9 -2,-3 -3,-7 -3,-11l-68 -1 0 0z"/>
  <path class="fil41" d="M167 44c-27,-16 -62,-18 -91,-2l33 60c8,-4 16,-4 23,0l35 -58 0 0z"/>
  <path class="fil39 str0" d="M167 44c-27,-16 -62,-18 -91,-2l33 60c8,-4 16,-4 23,0l35 -58 0 0z"/>
  <path class="fil42" d="M106 130c4,7 14,10 22,6 8,-5 11,-15 7,-23 -5,-7 -15,-10 -23,-6 -8,5 -11,15 -6,23z"/>
  <path class="fil43 str0" d="M106 130c4,7 14,10 22,6 8,-5 11,-15 7,-23 -5,-7 -15,-10 -23,-6 -8,5 -11,15 -6,23z"/>
 </g>
</svg>
